<svg width="195" height="40" viewBox="0 0 195 40" fill="none" xmlns="http://www.w3.org/2000/svg">
<path d="M71.9047 25.6089C74.2087 25.6089 76.2247 24.4749 77.3047 22.6929L74.8207 21.2529C74.2807 22.2249 73.1827 22.8009 71.9047 22.8009C69.6727 22.8009 68.2327 21.3069 68.2327 19.0569C68.2327 16.8069 69.6727 15.3129 71.9047 15.3129C73.1827 15.3129 74.2627 15.8889 74.8207 16.8609L77.3047 15.4209C76.2067 13.6389 74.1907 12.5049 71.9047 12.5049C68.1067 12.5049 65.3527 15.3489 65.3527 19.0569C65.3527 22.7649 68.1067 25.6089 71.9047 25.6089ZM82.9723 25.6089C85.6183 25.6089 87.7423 23.5389 87.7423 20.8569C87.7423 18.1749 85.6183 16.1049 82.9723 16.1049C80.3263 16.1049 78.2023 18.1749 78.2023 20.8569C78.2023 23.5389 80.3263 25.6089 82.9723 25.6089ZM82.9723 22.9809C81.8023 22.9809 80.9023 22.1349 80.9023 20.8569C80.9023 19.5789 81.8023 18.7329 82.9723 18.7329C84.1423 18.7329 85.0423 19.5789 85.0423 20.8569C85.0423 22.1349 84.1423 22.9809 82.9723 22.9809ZM94.5435 16.1049C93.3555 16.1049 92.4555 16.5369 91.9695 17.2029V16.3569H89.2695V25.3569H91.9695V20.4429C91.9695 19.1649 92.6535 18.5889 93.6435 18.5889C94.5075 18.5889 95.2095 19.1109 95.2095 20.2269V25.3569H97.9095V19.8309C97.9095 17.4009 96.3615 16.1049 94.5435 16.1049ZM108.044 16.3569H103.04C103.04 15.3129 103.706 15.0969 104.714 15.0969C105.398 15.0969 106.154 15.1509 106.964 15.2409V12.7569C106.19 12.5949 105.452 12.5049 104.714 12.5049C101.726 12.5049 100.34 13.8369 100.34 16.3569H99.1336V18.9489H100.34V25.3569H103.04V18.9489H105.344V25.3569H108.044V16.3569ZM112.729 17.9589V16.3569H110.029V25.3569H112.729V21.2889C112.729 19.5069 114.313 19.0569 115.429 19.2369V16.1769C114.295 16.1769 113.089 16.7529 112.729 17.9589ZM126.771 16.1049C125.493 16.1049 124.665 16.5729 124.161 17.2929C123.657 16.5369 122.865 16.1049 121.803 16.1049C120.597 16.1049 119.805 16.5729 119.391 17.1849V16.3569H116.691V25.3569H119.391V20.2809C119.391 19.2189 119.895 18.5889 120.795 18.5889C121.659 18.5889 122.091 19.1649 122.091 20.0649V25.3569H124.791V20.2809C124.791 19.2189 125.295 18.5889 126.195 18.5889C127.059 18.5889 127.491 19.1649 127.491 20.0649V25.3569H130.191V19.8309C130.191 17.5809 128.841 16.1049 126.771 16.1049Z" fill="white"/>
<rect x="40.1562" y="1.85693" width="115.546" height="35.6564" rx="17.8282" stroke="#FFBC58" stroke-width="3"/>
</svg>
