<svg width="271" height="43" viewBox="0 0 271 43" fill="none" xmlns="http://www.w3.org/2000/svg">
<path d="M37.1178 19.96H24.4818V25H31.2138C30.3138 27.412 28.1178 28.888 24.7698 28.888C19.8738 28.888 16.8498 25.756 16.8498 21.472C16.8498 17.044 20.0178 13.912 24.2658 13.912C27.1098 13.912 29.3778 15.208 30.4218 16.864L35.3178 14.056C33.1938 10.672 29.1258 8.296 24.3018 8.296C16.8858 8.296 11.0898 14.128 11.0898 21.436C11.0898 28.672 16.7778 34.504 24.6978 34.504C31.7538 34.504 37.1178 29.824 37.1178 22.12V19.96ZM55.471 34H61.771L53.203 8.8H45.859L37.291 34H43.591L44.851 30.04H54.211L55.471 34ZM46.579 24.64L49.531 15.388L52.483 24.64H46.579ZM89.1198 8.8H83.3598L76.5198 19.996L69.6798 8.8H63.9198V34H69.6798V19.348L76.1958 30.04H76.8438L83.3598 19.348V34H89.1198V8.8ZM99.211 28.456V23.992H108.211V18.52H99.211V14.344H109.111V8.8H93.451V34H109.291V28.456H99.211ZM138.461 8.8H119.741V14.344H126.221V34H131.981V14.344H138.461V8.8ZM140.982 8.8V34H146.742V8.8H140.982ZM176.272 8.8H170.512L163.672 19.996L156.832 8.8H151.072V34H156.832V19.348L163.348 30.04H163.996L170.512 19.348V34H176.272V8.8ZM180.603 8.8V34H186.363V8.8H180.603ZM204.733 8.8V22.48L195.013 8.8H190.693V34H196.453V20.32L206.173 34H210.493V8.8H204.733ZM239.758 19.96H227.122V25H233.854C232.954 27.412 230.758 28.888 227.41 28.888C222.514 28.888 219.49 25.756 219.49 21.472C219.49 17.044 222.658 13.912 226.906 13.912C229.75 13.912 232.018 15.208 233.062 16.864L237.958 14.056C235.834 10.672 231.766 8.296 226.942 8.296C219.526 8.296 213.73 14.128 213.73 21.436C213.73 28.672 219.418 34.504 227.338 34.504C234.394 34.504 239.758 29.824 239.758 22.12V19.96ZM250.912 34.504C256.384 34.504 260.272 31.624 260.272 26.764C260.272 21.436 255.988 20.104 252.172 18.952C248.248 17.764 247.636 16.972 247.636 15.82C247.636 14.812 248.536 13.912 250.336 13.912C252.64 13.912 253.828 15.028 254.692 16.828L259.552 13.984C257.716 10.276 254.476 8.296 250.336 8.296C245.98 8.296 241.876 11.104 241.876 15.964C241.876 20.788 245.548 22.588 249.292 23.632C253.072 24.676 254.512 25.288 254.512 26.836C254.512 27.808 253.828 28.888 251.092 28.888C248.248 28.888 246.7 27.484 245.8 25.396L240.832 28.276C242.236 31.984 245.62 34.504 250.912 34.504Z" fill="#FFBC58"/>
</svg>
