<svg width="271" height="43" viewBox="0 0 271 43" fill="none" xmlns="http://www.w3.org/2000/svg">
<path d="M35.8521 19.96H23.2161V25H29.9481C29.0481 27.412 26.8521 28.888 23.5041 28.888C18.6081 28.888 15.5841 25.756 15.5841 21.472C15.5841 17.044 18.7521 13.912 23.0001 13.912C25.8441 13.912 28.1121 15.208 29.1561 16.864L34.0521 14.056C31.9281 10.672 27.8601 8.296 23.0361 8.296C15.6201 8.296 9.82414 14.128 9.82414 21.436C9.82414 28.672 15.5121 34.504 23.4321 34.504C30.4881 34.504 35.8521 29.824 35.8521 22.12V19.96ZM54.2054 34H60.5054L51.9374 8.8H44.5934L36.0254 34H42.3254L43.5854 30.04H52.9454L54.2054 34ZM45.3134 24.64L48.2654 15.388L51.2174 24.64H45.3134ZM87.8541 8.8H82.0941L75.2541 19.996L68.4141 8.8H62.6541V34H68.4141V19.348L74.9301 30.04H75.5781L82.0941 19.348V34H87.8541V8.8ZM97.9454 28.456V23.992H106.945V18.52H97.9454V14.344H107.845V8.8H92.1854V34H108.025V28.456H97.9454ZM133.955 8.8V18.448H126.035V8.8H120.275V34H126.035V23.992H133.955V34H139.715V8.8H133.955ZM144.041 8.8V34H149.801V8.8H144.041ZM162.599 34.504C168.071 34.504 171.959 31.624 171.959 26.764C171.959 21.436 167.675 20.104 163.859 18.952C159.935 17.764 159.323 16.972 159.323 15.82C159.323 14.812 160.223 13.912 162.023 13.912C164.327 13.912 165.515 15.028 166.379 16.828L171.239 13.984C169.403 10.276 166.163 8.296 162.023 8.296C157.667 8.296 153.563 11.104 153.563 15.964C153.563 20.788 157.235 22.588 160.979 23.632C164.759 24.676 166.199 25.288 166.199 26.836C166.199 27.808 165.515 28.888 162.779 28.888C159.935 28.888 158.387 27.484 157.487 25.396L152.519 28.276C153.923 31.984 157.307 34.504 162.599 34.504ZM190.844 8.8H172.124V14.344H178.604V34H184.364V14.344H190.844V8.8ZM203.948 34.504C211.184 34.504 217.052 28.816 217.052 21.4C217.052 13.984 211.184 8.296 203.948 8.296C196.712 8.296 190.844 13.984 190.844 21.4C190.844 28.816 196.712 34.504 203.948 34.504ZM203.948 28.888C199.844 28.888 196.604 25.9 196.604 21.4C196.604 16.9 199.844 13.912 203.948 13.912C208.052 13.912 211.292 16.9 211.292 21.4C211.292 25.9 208.052 28.888 203.948 28.888ZM233.543 34H239.735L234.371 24.748C237.143 23.344 239.015 20.536 239.015 17.44C239.015 12.652 235.163 8.8 230.375 8.8H220.295V34H226.055V25.72H228.791L233.543 34ZM226.055 14.2H230.375C231.959 14.2 233.255 15.604 233.255 17.44C233.255 19.276 231.959 20.68 230.375 20.68H226.055V14.2ZM262.26 8.8H255.708L250.92 18.52L246.132 8.8H239.58L248.04 24.316V34H253.8V24.316L262.26 8.8Z" fill="#FFBC58"/>
</svg>
