<svg width="271" height="43" viewBox="0 0 271 43" fill="none" xmlns="http://www.w3.org/2000/svg">
<path d="M60.1862 8.8H54.4262L47.5862 19.996L40.7462 8.8H34.9862V34H40.7462V19.348L47.2622 30.04H47.9102L54.4262 19.348V34H60.1862V8.8ZM85.0374 8.8H78.4854L73.6974 18.52L68.9094 8.8H62.3574L70.8174 24.316V34H76.5774V24.316L85.0374 8.8ZM109.873 8.8V18.448H101.953V8.8H96.1932V34H101.953V23.992H109.873V34H115.633V8.8H109.873ZM119.959 8.8V34H125.719V8.8H119.959ZM138.517 34.504C143.989 34.504 147.877 31.624 147.877 26.764C147.877 21.436 143.593 20.104 139.777 18.952C135.853 17.764 135.241 16.972 135.241 15.82C135.241 14.812 136.141 13.912 137.941 13.912C140.245 13.912 141.433 15.028 142.297 16.828L147.157 13.984C145.321 10.276 142.081 8.296 137.941 8.296C133.585 8.296 129.481 11.104 129.481 15.964C129.481 20.788 133.153 22.588 136.897 23.632C140.677 24.676 142.117 25.288 142.117 26.836C142.117 27.808 141.433 28.888 138.697 28.888C135.853 28.888 134.305 27.484 133.405 25.396L128.437 28.276C129.841 31.984 133.225 34.504 138.517 34.504ZM166.762 8.8H148.042V14.344H154.522V34H160.282V14.344H166.762V8.8ZM179.866 34.504C187.102 34.504 192.97 28.816 192.97 21.4C192.97 13.984 187.102 8.296 179.866 8.296C172.63 8.296 166.762 13.984 166.762 21.4C166.762 28.816 172.63 34.504 179.866 34.504ZM179.866 28.888C175.762 28.888 172.522 25.9 172.522 21.4C172.522 16.9 175.762 13.912 179.866 13.912C183.97 13.912 187.21 16.9 187.21 21.4C187.21 25.9 183.97 28.888 179.866 28.888ZM209.461 34H215.653L210.289 24.748C213.061 23.344 214.933 20.536 214.933 17.44C214.933 12.652 211.081 8.8 206.293 8.8H196.213V34H201.973V25.72H204.709L209.461 34ZM201.973 14.2H206.293C207.877 14.2 209.173 15.604 209.173 17.44C209.173 19.276 207.877 20.68 206.293 20.68H201.973V14.2ZM238.178 8.8H231.626L226.838 18.52L222.05 8.8H215.498L223.958 24.316V34H229.718V24.316L238.178 8.8Z" fill="#FFBC58"/>
</svg>
