<svg width="226" height="45" viewBox="0 0 226 45" fill="none" xmlns="http://www.w3.org/2000/svg">
<path d="M90.3028 25.228V15.4H87.4228V28H94.8028V25.228H90.3028ZM101.363 28.252C104.981 28.252 107.915 25.408 107.915 21.7C107.915 17.992 104.981 15.148 101.363 15.148C97.7445 15.148 94.8105 17.992 94.8105 21.7C94.8105 25.408 97.7445 28.252 101.363 28.252ZM101.363 25.444C99.3105 25.444 97.6905 23.95 97.6905 21.7C97.6905 19.45 99.3105 17.956 101.363 17.956C103.415 17.956 105.035 19.45 105.035 21.7C105.035 23.95 103.415 25.444 101.363 25.444ZM122.01 20.98H115.692V23.5H119.058C118.608 24.706 117.51 25.444 115.836 25.444C113.388 25.444 111.876 23.878 111.876 21.736C111.876 19.522 113.46 17.956 115.584 17.956C117.006 17.956 118.14 18.604 118.662 19.432L121.11 18.028C120.048 16.336 118.014 15.148 115.602 15.148C111.894 15.148 108.996 18.064 108.996 21.718C108.996 25.336 111.84 28.252 115.8 28.252C119.328 28.252 122.01 25.912 122.01 22.06V20.98ZM123.634 15.4V28H126.514V15.4H123.634ZM135.699 15.4V22.24L130.839 15.4H128.679V28H131.559V21.16L136.419 28H138.579V15.4H135.699Z" fill="white"/>
<rect x="45.5" y="1.5" width="135" height="42" rx="21" stroke="#FFBC58" stroke-width="3"/>
</svg>
