<svg width="226" height="45" viewBox="0 0 226 45" fill="none" xmlns="http://www.w3.org/2000/svg">
<path d="M81.0918 25.228V15.4H78.2118V28H85.5918V25.228H81.0918ZM92.1516 28.252C95.7696 28.252 98.7036 25.408 98.7036 21.7C98.7036 17.992 95.7696 15.148 92.1516 15.148C88.5336 15.148 85.5996 17.992 85.5996 21.7C85.5996 25.408 88.5336 28.252 92.1516 28.252ZM92.1516 25.444C90.0996 25.444 88.4796 23.95 88.4796 21.7C88.4796 19.45 90.0996 17.956 92.1516 17.956C94.2036 17.956 95.8236 19.45 95.8236 21.7C95.8236 23.95 94.2036 25.444 92.1516 25.444ZM112.799 20.98H106.481V23.5H109.847C109.397 24.706 108.299 25.444 106.625 25.444C104.177 25.444 102.665 23.878 102.665 21.736C102.665 19.522 104.249 17.956 106.373 17.956C107.795 17.956 108.929 18.604 109.451 19.432L111.899 18.028C110.837 16.336 108.803 15.148 106.391 15.148C102.683 15.148 99.7851 18.064 99.7851 21.718C99.7851 25.336 102.629 28.252 106.589 28.252C110.117 28.252 112.799 25.912 112.799 22.06V20.98ZM120.435 28.252C124.053 28.252 126.987 25.408 126.987 21.7C126.987 17.992 124.053 15.148 120.435 15.148C116.817 15.148 113.883 17.992 113.883 21.7C113.883 25.408 116.817 28.252 120.435 28.252ZM120.435 25.444C118.383 25.444 116.763 23.95 116.763 21.7C116.763 19.45 118.383 17.956 120.435 17.956C122.487 17.956 124.107 19.45 124.107 21.7C124.107 23.95 122.487 25.444 120.435 25.444ZM133.29 28.252C136.062 28.252 138.15 26.632 138.15 23.932V15.4H135.27V23.68C135.27 24.634 134.82 25.444 133.29 25.444C131.76 25.444 131.31 24.634 131.31 23.68V15.4H128.43V23.932C128.43 26.632 130.518 28.252 133.29 28.252ZM148.687 15.4H139.327V18.172H142.567V28H145.447V18.172H148.687V15.4Z" fill="white"/>
<rect x="45.5" y="1.5" width="135" height="42" rx="21" stroke="#FFBC58" stroke-width="3"/>
</svg>
