<svg width="29" height="29" viewBox="0 0 29 29" fill="none" xmlns="http://www.w3.org/2000/svg">
<path d="M19.4844 26.2813C23.9889 26.2813 27.6406 22.6296 27.6406 18.125C27.6406 13.6204 23.9889 9.96875 19.4844 9.96875C14.9798 9.96875 11.3281 13.6204 11.3281 18.125C11.3281 22.6296 14.9798 26.2813 19.4844 26.2813Z" fill="#EE8700"/>
<path d="M19.4844 24.0156C22.7377 24.0156 25.375 21.3783 25.375 18.125C25.375 14.8717 22.7377 12.2344 19.4844 12.2344C16.2311 12.2344 13.5938 14.8717 13.5938 18.125C13.5938 21.3783 16.2311 24.0156 19.4844 24.0156Z" fill="#FFA733"/>
<path d="M19.4844 12.2344C19.2572 12.2355 19.0302 12.2498 18.8047 12.277C20.2394 12.4429 21.563 13.1304 22.5238 14.2087C23.4846 15.287 24.0155 16.6808 24.0155 18.1251C24.0155 19.5693 23.4846 20.9631 22.5238 22.0414C21.563 23.1197 20.2394 23.8072 18.8047 23.9731C19.6034 24.0696 20.4134 24.0015 21.1848 23.7729C21.9561 23.5444 22.6725 23.1602 23.2897 22.6442C23.9069 22.1282 24.4119 21.4912 24.7734 20.7725C25.135 20.0538 25.3456 19.2687 25.3921 18.4655C25.4386 17.6623 25.3201 16.8582 25.0438 16.1026C24.7676 15.3469 24.3396 14.6559 23.786 14.0721C23.2325 13.4883 22.5653 13.024 21.8254 12.708C21.0856 12.3919 20.2889 12.2308 19.4844 12.2344Z" fill="#FF9811"/>
<path d="M9.51562 19.0312C14.0202 19.0312 17.6719 15.3796 17.6719 10.875C17.6719 6.37043 14.0202 2.71875 9.51562 2.71875C5.01105 2.71875 1.35938 6.37043 1.35938 10.875C1.35938 15.3796 5.01105 19.0312 9.51562 19.0312Z" fill="#FF9811"/>
<path d="M9.51562 16.7656C12.7689 16.7656 15.4062 14.1283 15.4062 10.875C15.4062 7.6217 12.7689 4.98438 9.51562 4.98438C6.26232 4.98438 3.625 7.6217 3.625 10.875C3.625 14.1283 6.26232 16.7656 9.51562 16.7656Z" fill="#FFB655"/>
<path d="M9.51562 4.98444C9.28843 4.98555 9.06149 4.99977 8.83594 5.02703C10.2706 5.19293 11.5942 5.88042 12.555 6.9587C13.5158 8.03699 14.0467 9.43083 14.0467 10.8751C14.0467 12.3193 13.5158 13.7131 12.555 14.7914C11.5942 15.8697 10.2706 16.5572 8.83594 16.7231C9.63464 16.8196 10.4446 16.7515 11.216 16.5229C11.9874 16.2944 12.7037 15.9102 13.3209 15.3942C13.9382 14.8781 14.4431 14.2412 14.8047 13.5225C15.1663 12.8038 15.3768 12.0187 15.4233 11.2155C15.4698 10.4123 15.3513 9.60816 15.0751 8.85255C14.7989 8.09695 14.3708 7.40593 13.8173 6.8221C13.2638 6.23828 12.5965 5.77403 11.8567 5.45798C11.1169 5.14192 10.3201 4.98076 9.51562 4.98444Z" fill="#FFA733"/>
<path d="M9.51563 4.53125C8.26095 4.53125 7.03445 4.9033 5.99123 5.60036C4.948 6.29742 4.13491 7.28818 3.65477 8.44735C3.17462 9.60652 3.049 10.882 3.29377 12.1126C3.53855 13.3432 4.14273 14.4735 5.02992 15.3607C5.91711 16.2479 7.04746 16.8521 8.27802 17.0969C9.50859 17.3416 10.7841 17.216 11.9433 16.7359C13.1024 16.2557 14.0932 15.4426 14.7903 14.3994C15.4873 13.3562 15.8594 12.1297 15.8594 10.875C15.8576 9.19309 15.1886 7.58057 13.9993 6.39128C12.8101 5.20198 11.1975 4.53305 9.51563 4.53125ZM9.51563 16.3125C8.44019 16.3125 7.38891 15.9936 6.49471 15.3961C5.60052 14.7986 4.90358 13.9494 4.49203 12.9558C4.08048 11.9623 3.9728 10.869 4.18261 9.8142C4.39241 8.75942 4.91029 7.79056 5.67073 7.03011C6.43118 6.26966 7.40005 5.75179 8.45482 5.54198C9.5096 5.33217 10.6029 5.43985 11.5965 5.85141C12.59 6.26296 13.4393 6.95989 14.0367 7.85409C14.6342 8.74828 14.9531 9.79956 14.9531 10.875C14.9516 12.3166 14.3782 13.6988 13.3588 14.7182C12.3394 15.7376 10.9573 16.3109 9.51563 16.3125Z" fill="#231F20"/>
<path d="M19.4846 9.5157C18.9954 9.5146 18.5071 9.55706 18.0255 9.64258C17.7853 7.93851 17.0415 6.34504 15.8895 5.06659C14.7375 3.78813 13.2299 2.88298 11.5599 2.46724C9.88997 2.0515 8.1339 2.14412 6.51696 2.73324C4.90002 3.32235 3.49594 4.38109 2.48483 5.77364C1.47372 7.16619 0.901682 8.82906 0.842095 10.5489C0.782507 12.2688 1.23809 13.9673 2.1504 15.4265C3.06271 16.8857 4.39014 18.0391 5.96243 18.7387C7.53472 19.4383 9.28017 19.6522 10.9749 19.353C11.2113 20.9853 11.9119 22.5152 12.9932 23.7605C14.0744 25.0058 15.4909 25.9142 17.0737 26.3773C18.6566 26.8405 20.3393 26.839 21.9213 26.3729C23.5034 25.9068 24.9181 24.9959 25.9971 23.7486C27.0761 22.5012 27.7738 20.9701 28.0073 19.3374C28.2407 17.7048 28 16.0394 27.3138 14.5397C26.6275 13.04 25.5247 11.7691 24.1367 10.8784C22.7486 9.98768 21.1338 9.51467 19.4846 9.5157ZM19.4846 12.6876C20.5579 12.6867 21.6074 13.0036 22.501 13.5981C23.3946 14.1927 24.0922 15.0384 24.506 16.0287C24.9198 17.0191 25.0312 18.1097 24.8263 19.1633C24.6214 20.2168 24.1092 21.1862 23.3544 21.9492C22.5996 22.7122 21.6358 23.2348 20.5845 23.451C19.5332 23.6673 18.4414 23.5676 17.4467 23.1645C16.452 22.7614 15.5988 22.073 14.9946 21.1859C14.3905 20.2988 14.0623 19.2527 14.0516 18.1795C15.9548 16.9955 17.3218 15.1166 17.8624 12.9413C18.3867 12.7734 18.934 12.6878 19.4846 12.6876ZM9.51582 18.5782C7.99229 18.5782 6.50297 18.1264 5.23619 17.28C3.96942 16.4336 2.98209 15.2305 2.39906 13.8229C1.81603 12.4154 1.66348 10.8665 1.96071 9.37227C2.25793 7.87801 2.99159 6.50545 4.06889 5.42815C5.14619 4.35085 6.51876 3.61719 8.01302 3.31997C9.50728 3.02274 11.0561 3.17529 12.4637 3.75832C13.8712 4.34135 15.0743 5.32868 15.9207 6.59545C16.7672 7.86222 17.2189 9.35154 17.2189 10.8751C17.2161 12.9172 16.4036 14.8748 14.9596 16.3188C13.5156 17.7628 11.5579 18.5753 9.51582 18.5782ZM19.4846 25.8282C17.6237 25.8187 15.8287 25.1386 14.4288 23.9126C13.0288 22.6866 12.1179 20.997 11.863 19.1537C12.3105 19.0243 12.7469 18.8591 13.168 18.6598C13.2745 19.9527 13.7741 21.182 14.5996 22.1827C15.4251 23.1834 16.5371 23.9076 17.7861 24.258C19.0352 24.6083 20.3615 24.5682 21.5871 24.1428C22.8127 23.7175 23.8787 22.9273 24.6422 21.8785C25.4056 20.8297 25.8298 19.5723 25.8579 18.2754C25.886 16.9784 25.5166 15.7039 24.7993 14.623C24.082 13.5421 23.0511 12.7066 21.8451 12.2286C20.6391 11.7506 19.3157 11.653 18.0527 11.949C18.0978 11.5927 18.122 11.2342 18.1252 10.8751C18.1252 10.7663 18.1116 10.6666 18.1071 10.5579C19.1592 10.3659 20.2399 10.3952 21.2801 10.6441C22.3203 10.893 23.2972 11.3559 24.1485 12.0033C24.9999 12.6507 25.707 13.4684 26.2247 14.4043C26.7424 15.3402 27.0595 16.3737 27.1556 17.4389C27.2516 18.5042 27.1247 19.5777 26.7828 20.5912C26.4409 21.6046 25.8916 22.5357 25.1698 23.325C24.4481 24.1143 23.5698 24.7446 22.5909 25.1755C21.6121 25.6065 20.5541 25.8288 19.4846 25.8282Z" fill="#231F20"/>
</svg>
