<svg width="29" height="25" viewBox="0 0 29 25" fill="none" xmlns="http://www.w3.org/2000/svg">
<path d="M19.4844 24.2813C23.9889 24.2813 27.6406 20.6296 27.6406 16.125C27.6406 11.6204 23.9889 7.96875 19.4844 7.96875C14.9798 7.96875 11.3281 11.6204 11.3281 16.125C11.3281 20.6296 14.9798 24.2813 19.4844 24.2813Z" fill="#EE8700"/>
<path d="M19.4844 22.0156C22.7377 22.0156 25.375 19.3783 25.375 16.125C25.375 12.8717 22.7377 10.2344 19.4844 10.2344C16.2311 10.2344 13.5938 12.8717 13.5938 16.125C13.5938 19.3783 16.2311 22.0156 19.4844 22.0156Z" fill="#FFA733"/>
<path d="M19.4844 10.2344C19.2572 10.2355 19.0302 10.2498 18.8047 10.277C20.2394 10.4429 21.563 11.1304 22.5238 12.2087C23.4846 13.287 24.0155 14.6808 24.0155 16.1251C24.0155 17.5693 23.4846 18.9631 22.5238 20.0414C21.563 21.1197 20.2394 21.8072 18.8047 21.9731C19.6034 22.0696 20.4134 22.0015 21.1848 21.7729C21.9561 21.5444 22.6725 21.1602 23.2897 20.6442C23.9069 20.1282 24.4119 19.4912 24.7734 18.7725C25.135 18.0538 25.3456 17.2687 25.3921 16.4655C25.4386 15.6623 25.3201 14.8582 25.0438 14.1026C24.7676 13.3469 24.3396 12.6559 23.786 12.0721C23.2325 11.4883 22.5653 11.024 21.8254 10.708C21.0856 10.3919 20.2889 10.2308 19.4844 10.2344Z" fill="#FF9811"/>
<path d="M9.51562 17.0312C14.0202 17.0312 17.6719 13.3796 17.6719 8.875C17.6719 4.37043 14.0202 0.71875 9.51562 0.71875C5.01105 0.71875 1.35938 4.37043 1.35938 8.875C1.35938 13.3796 5.01105 17.0312 9.51562 17.0312Z" fill="#FF9811"/>
<path d="M9.51562 14.7656C12.7689 14.7656 15.4062 12.1283 15.4062 8.875C15.4062 5.6217 12.7689 2.98438 9.51562 2.98438C6.26232 2.98438 3.625 5.6217 3.625 8.875C3.625 12.1283 6.26232 14.7656 9.51562 14.7656Z" fill="#FFB655"/>
<path d="M9.51562 2.98444C9.28843 2.98555 9.06149 2.99977 8.83594 3.02703C10.2706 3.19293 11.5942 3.88042 12.555 4.9587C13.5158 6.03699 14.0467 7.43083 14.0467 8.87506C14.0467 10.3193 13.5158 11.7131 12.555 12.7914C11.5942 13.8697 10.2706 14.5572 8.83594 14.7231C9.63464 14.8196 10.4446 14.7515 11.216 14.5229C11.9874 14.2944 12.7037 13.9102 13.3209 13.3942C13.9382 12.8781 14.4431 12.2412 14.8047 11.5225C15.1663 10.8038 15.3768 10.0187 15.4233 9.21551C15.4698 8.41234 15.3513 7.60816 15.0751 6.85255C14.7989 6.09695 14.3708 5.40593 13.8173 4.8221C13.2638 4.23828 12.5965 3.77403 11.8567 3.45798C11.1169 3.14192 10.3201 2.98076 9.51562 2.98444Z" fill="#FFA733"/>
<path d="M9.51563 2.53125C8.26095 2.53125 7.03445 2.9033 5.99123 3.60036C4.948 4.29742 4.13491 5.28818 3.65477 6.44735C3.17462 7.60652 3.049 8.88204 3.29377 10.1126C3.53855 11.3432 4.14273 12.4735 5.02992 13.3607C5.91711 14.2479 7.04746 14.8521 8.27802 15.0969C9.50859 15.3416 10.7841 15.216 11.9433 14.7359C13.1024 14.2557 14.0932 13.4426 14.7903 12.3994C15.4873 11.3562 15.8594 10.1297 15.8594 8.875C15.8576 7.19309 15.1886 5.58057 13.9993 4.39128C12.8101 3.20198 11.1975 2.53305 9.51563 2.53125ZM9.51563 14.3125C8.44019 14.3125 7.38891 13.9936 6.49471 13.3961C5.60052 12.7986 4.90358 11.9494 4.49203 10.9558C4.08048 9.96227 3.9728 8.86897 4.18261 7.8142C4.39241 6.75942 4.91029 5.79056 5.67073 5.03011C6.43118 4.26966 7.40005 3.75179 8.45482 3.54198C9.5096 3.33217 10.6029 3.43985 11.5965 3.85141C12.59 4.26296 13.4393 4.95989 14.0367 5.85409C14.6342 6.74828 14.9531 7.79956 14.9531 8.875C14.9516 10.3166 14.3782 11.6988 13.3588 12.7182C12.3394 13.7376 10.9573 14.3109 9.51563 14.3125Z" fill="#231F20"/>
<path d="M19.4836 7.5157C18.9944 7.5146 18.5062 7.55706 18.0245 7.64258C17.7843 5.93851 17.0405 4.34504 15.8885 3.06659C14.7365 1.78813 13.2289 0.88298 11.5589 0.467238C9.889 0.0514962 8.13293 0.144123 6.51599 0.733236C4.89905 1.32235 3.49497 2.38109 2.48386 3.77364C1.47274 5.16619 0.900706 6.82906 0.841118 8.54894C0.78153 10.2688 1.23711 11.9673 2.14942 13.4265C3.06173 14.8857 4.38917 16.0391 5.96146 16.7387C7.53375 17.4383 9.27919 17.6522 10.9739 17.353C11.2103 18.9853 11.9109 20.5152 12.9922 21.7605C14.0735 23.0058 15.4899 23.9142 17.0728 24.3773C18.6557 24.8405 20.3383 24.839 21.9203 24.3729C23.5024 23.9068 24.9171 22.9959 25.9961 21.7486C27.0751 20.5012 27.7729 18.9701 28.0063 17.3374C28.2397 15.7048 27.999 14.0394 27.3128 12.5397C26.6266 11.04 25.5238 9.7691 24.1357 8.87839C22.7477 7.98768 21.1329 7.51467 19.4836 7.5157ZM19.4836 10.6876C20.5569 10.6867 21.6064 11.0036 22.5 11.5981C23.3936 12.1927 24.0912 13.0384 24.505 14.0287C24.9188 15.0191 25.0303 16.1097 24.8253 17.1633C24.6204 18.2168 24.1083 19.1862 23.3534 19.9492C22.5986 20.7122 21.6348 21.2348 20.5835 21.451C19.5322 21.6673 18.4405 21.5676 17.4457 21.1645C16.451 20.7614 15.5978 20.073 14.9936 19.1859C14.3895 18.2988 14.0614 17.2527 14.0506 16.1795C15.9539 14.9955 17.3208 13.1166 17.8614 10.9413C18.3858 10.7734 18.933 10.6878 19.4836 10.6876ZM9.51484 16.5782C7.99131 16.5782 6.50199 16.1264 5.23522 15.28C3.96844 14.4336 2.98112 13.2305 2.39808 11.8229C1.81505 10.4154 1.6625 8.86653 1.95973 7.37227C2.25696 5.87801 2.99061 4.50545 4.06791 3.42815C5.14521 2.35085 6.51778 1.61719 8.01204 1.31997C9.5063 1.02274 11.0551 1.17529 12.4627 1.75832C13.8703 2.34135 15.0733 3.32868 15.9198 4.59545C16.7662 5.86222 17.218 7.35154 17.218 8.87508C17.2151 10.9172 16.4026 12.8748 14.9586 14.3188C13.5146 15.7628 11.557 16.5753 9.51484 16.5782ZM19.4836 23.8282C17.6228 23.8187 15.8277 23.1386 14.4278 21.9126C13.0279 20.6866 12.1169 18.997 11.862 17.1537C12.3096 17.0243 12.746 16.8591 13.167 16.6598C13.2736 17.9527 13.7731 19.182 14.5987 20.1827C15.4242 21.1834 16.5361 21.9076 17.7852 22.258C19.0342 22.6083 20.3606 22.5682 21.5861 22.1428C22.8117 21.7175 23.8777 20.9273 24.6412 19.8785C25.4046 18.8297 25.8289 17.5723 25.857 16.2754C25.885 14.9784 25.5156 13.7039 24.7983 12.623C24.081 11.5421 23.0501 10.7066 21.8441 10.2286C20.6381 9.75056 19.3148 9.653 18.0517 9.94899C18.0968 9.59273 18.121 9.23415 18.1242 8.87508C18.1242 8.76633 18.1106 8.66664 18.1061 8.55789C19.1583 8.36588 20.2389 8.39524 21.2791 8.6441C22.3193 8.89296 23.2962 9.35586 24.1476 10.0033C24.9989 10.6507 25.706 11.4684 26.2237 12.4043C26.7415 13.3402 27.0585 14.3737 27.1546 15.4389C27.2507 16.5042 27.1237 17.5777 26.7818 18.5912C26.4399 19.6046 25.8906 20.5357 25.1689 21.325C24.4471 22.1143 23.5688 22.7446 22.59 23.1755C21.6111 23.6065 20.5531 23.8288 19.4836 23.8282Z" fill="#231F20"/>
</svg>
