<svg width="226" height="45" viewBox="0 0 226 45" fill="none" xmlns="http://www.w3.org/2000/svg">
<path d="M76.9265 28.252C79.6625 28.252 81.6065 26.812 81.6065 24.382C81.6065 21.718 79.4645 21.052 77.5565 20.476C75.5945 19.882 75.2885 19.486 75.2885 18.91C75.2885 18.406 75.7385 17.956 76.6385 17.956C77.7905 17.956 78.3845 18.514 78.8165 19.414L81.2465 17.992C80.3285 16.138 78.7085 15.148 76.6385 15.148C74.4605 15.148 72.4085 16.552 72.4085 18.982C72.4085 21.394 74.2445 22.294 76.1165 22.816C78.0065 23.338 78.7265 23.644 78.7265 24.418C78.7265 24.904 78.3845 25.444 77.0165 25.444C75.5945 25.444 74.8205 24.742 74.3705 23.698L71.8865 25.138C72.5885 26.992 74.2805 28.252 76.9265 28.252ZM85.8379 25.228V22.996H90.3379V20.26H85.8379V18.172H90.7879V15.4H82.9579V28H90.8779V25.228H85.8379ZM99.5229 15.4V22.24L94.6629 15.4H92.5029V28H95.3829V21.16L100.243 28H102.403V15.4H99.5229ZM109.601 15.4H104.561V28H109.601C113.075 28 115.721 25.264 115.721 21.7C115.721 18.136 113.075 15.4 109.601 15.4ZM109.601 25.228H107.441V18.172H109.601C111.581 18.172 112.949 19.54 112.949 21.7C112.949 23.86 111.581 25.228 109.601 25.228ZM127.853 28.252C131.471 28.252 134.405 25.408 134.405 21.7C134.405 17.992 131.471 15.148 127.853 15.148C124.235 15.148 121.301 17.992 121.301 21.7C121.301 25.408 124.235 28.252 127.853 28.252ZM127.853 25.444C125.801 25.444 124.181 23.95 124.181 21.7C124.181 19.45 125.801 17.956 127.853 17.956C129.905 17.956 131.525 19.45 131.525 21.7C131.525 23.95 129.905 25.444 127.853 25.444ZM143.766 15.4H134.406V18.172H137.646V28H140.526V18.172H143.766V15.4ZM149.796 15.4H145.026V28H147.906V24.04H149.796C152.28 24.04 154.206 22.114 154.206 19.72C154.206 17.326 152.28 15.4 149.796 15.4ZM149.796 21.34H147.906V18.1H149.796C150.678 18.1 151.326 18.802 151.326 19.72C151.326 20.638 150.678 21.34 149.796 21.34Z" fill="white"/>
<rect x="45.5" y="1.5" width="135" height="42" rx="21" stroke="#FFBC58" stroke-width="3"/>
</svg>
