<svg width="226" height="45" viewBox="0 0 226 45" fill="none" xmlns="http://www.w3.org/2000/svg">
<rect x="45.5" y="1.5" width="135" height="42" rx="21" fill="#FFBC58" stroke="#FFBC58" stroke-width="3"/>
<path d="M98.0639 16.4H93.2939V29H96.1739V25.04H98.0639C100.548 25.04 102.474 23.114 102.474 20.72C102.474 18.326 100.548 16.4 98.0639 16.4ZM98.0639 22.34H96.1739V19.1H98.0639C98.9459 19.1 99.5939 19.802 99.5939 20.72C99.5939 21.638 98.9459 22.34 98.0639 22.34ZM106.791 26.228V16.4H103.911V29H111.291V26.228H106.791ZM120.921 29H124.071L119.787 16.4H116.115L111.831 29H114.981L115.611 27.02H120.291L120.921 29ZM116.475 24.32L117.951 19.694L119.427 24.32H116.475ZM133.788 16.4H130.512L128.118 21.26L125.724 16.4H122.448L126.678 24.158V29H129.558V24.158L133.788 16.4Z" fill="white"/>
</svg>
