<svg width="226" height="45" viewBox="0 0 226 45" fill="none" xmlns="http://www.w3.org/2000/svg">
<rect x="45.5" y="1.5" width="135" height="42" rx="21" fill="#FFBC58" stroke="#FFBC58" stroke-width="3"/>
<path d="M86.5066 28.252C89.2426 28.252 91.1866 26.812 91.1866 24.382C91.1866 21.718 89.0446 21.052 87.1366 20.476C85.1746 19.882 84.8686 19.486 84.8686 18.91C84.8686 18.406 85.3186 17.956 86.2186 17.956C87.3706 17.956 87.9646 18.514 88.3966 19.414L90.8266 17.992C89.9086 16.138 88.2886 15.148 86.2186 15.148C84.0406 15.148 81.9886 16.552 81.9886 18.982C81.9886 21.394 83.8246 22.294 85.6966 22.816C87.5866 23.338 88.3066 23.644 88.3066 24.418C88.3066 24.904 87.9646 25.444 86.5966 25.444C85.1746 25.444 84.4006 24.742 83.9506 23.698L81.4666 25.138C82.1686 26.992 83.8606 28.252 86.5066 28.252ZM92.538 15.4V28H95.418V15.4H92.538ZM110.057 20.98H103.739V23.5H107.105C106.655 24.706 105.557 25.444 103.883 25.444C101.435 25.444 99.9229 23.878 99.9229 21.736C99.9229 19.522 101.507 17.956 103.631 17.956C105.053 17.956 106.187 18.604 106.709 19.432L109.157 18.028C108.095 16.336 106.061 15.148 103.649 15.148C99.9409 15.148 97.0429 18.064 97.0429 21.718C97.0429 25.336 99.8869 28.252 103.847 28.252C107.375 28.252 110.057 25.912 110.057 22.06V20.98ZM118.701 15.4V22.24L113.841 15.4H111.681V28H114.561V21.16L119.421 28H121.581V15.4H118.701ZM128.509 28.252C131.281 28.252 133.369 26.632 133.369 23.932V15.4H130.489V23.68C130.489 24.634 130.039 25.444 128.509 25.444C126.979 25.444 126.529 24.634 126.529 23.68V15.4H123.649V23.932C123.649 26.632 125.737 28.252 128.509 28.252ZM140.216 15.4H135.446V28H138.326V24.04H140.216C142.7 24.04 144.626 22.114 144.626 19.72C144.626 17.326 142.7 15.4 140.216 15.4ZM140.216 21.34H138.326V18.1H140.216C141.098 18.1 141.746 18.802 141.746 19.72C141.746 20.638 141.098 21.34 140.216 21.34Z" fill="white"/>
</svg>
