<svg width="138" height="45" viewBox="0 0 138 45" fill="none" xmlns="http://www.w3.org/2000/svg">
<rect x="1.5" y="1.5" width="135" height="42" rx="21" fill="#FFBC58" stroke="#FFBC58" stroke-width="3"/>
<path d="M42.225 28.252C44.997 28.252 47.085 26.632 47.085 23.932V15.4H44.205V23.68C44.205 24.634 43.755 25.444 42.225 25.444C40.695 25.444 40.245 24.634 40.245 23.68V15.4H37.365V23.932C37.365 26.632 39.453 28.252 42.225 28.252ZM53.932 15.4H49.162V28H52.042V24.04H53.932C56.416 24.04 58.342 22.114 58.342 19.72C58.342 17.326 56.416 15.4 53.932 15.4ZM53.932 21.34H52.042V18.1H53.932C54.814 18.1 55.462 18.802 55.462 19.72C55.462 20.638 54.814 21.34 53.932 21.34ZM64.8192 15.4H59.7792V28H64.8192C68.2932 28 70.9392 25.264 70.9392 21.7C70.9392 18.136 68.2932 15.4 64.8192 15.4ZM64.8192 25.228H62.6592V18.172H64.8192C66.7992 18.172 68.1672 19.54 68.1672 21.7C68.1672 23.86 66.7992 25.228 64.8192 25.228ZM80.1115 28H83.2615L78.9775 15.4H75.3055L71.0215 28H74.1715L74.8015 26.02H79.4815L80.1115 28ZM75.6655 23.32L77.1415 18.694L78.6175 23.32H75.6655ZM91.8994 15.4H82.5394V18.172H85.7794V28H88.6594V18.172H91.8994V15.4ZM96.0401 25.228V22.996H100.54V20.26H96.0401V18.172H100.99V15.4H93.1601V28H101.08V25.228H96.0401Z" fill="white"/>
</svg>
